{"title":"Interview with the Vampire-720p MP4 AAC x264 BRRip 1994-CC","uid":7988164,"size":3344847918,"categoryP":"video","categoryS":"hd___movies","magnet":"?xt=urn:btih:8caf0d7b278983326d1cfffc33ba71768b805132&amp;dn=Interview+with+the+Vampire-720p+MP4+AAC+x264+BRRip+1994-CC&amp;tr=udp%3A%2F%2Ftracker.openbittorrent.com%3A80&amp;tr=udp%3A%2F%2Fopen.demonii.com%3A1337&amp;tr=udp%3A%2F%2Ftracker.coppersurfer.tk%3A6969&amp;tr=udp%3A%2F%2Fexodus.desync.com%3A6969","seeders":2,"leechers":4,"uploader":"Caveman44","files":-1,"time":1357334424,"description":"Interview with the Vampire: The Vampire Chronicles\n &lt;a href=&quot;\nhttp://www.imdb.com/title/tt0110148/&quot; rel=&quot;nofollow&quot; target=&quot;_NEW&quot;&gt;\nhttp://www.imdb.com/title/tt0110148/&lt;/a&gt;\n\nSource: Interview.with.the.Vampire.2008.720p.BluRay.x264-ESiR Thanks!\n\nSubs: Arabic, Brazilian, Croatian, Danish, Dutch, English, Farsi-Persian, Finnish, French, Greek, Hebrew, Polish, Portuguese, Romanian, Slovenian, Spanish, Swedish and Vietnamese.\n\nSample and Screens included.\n\nGeneral\nComplete name                            : Interview with the Vampire-720p MP4 AAC x264 BRRip 1994-CC.mp4\nFormat                                   : MPEG-4\nFormat profile                           : Base Media\nCodec ID                                 : isom\nFile size                                : 3.08 GiB\nDuration                                 : 2h 2mn\nOverall bit rate mode                    : Variable\nOverall bit rate                         : 3 598 Kbps\nEncoded date                             : UTC 2012-12-18 11:51:34\n\nVideo\nID                                       : 1\nFormat                                   : AVC\nFormat/Info                              : Advanced Video Codec\nFormat profile                           : &lt;a class=&quot;__cf_email__&quot; href=&quot;/cdn-cgi/l/email-protection&quot; data-cfemail=&quot;d199b8b6b9919de5ffe0&quot;&gt;[email&amp;#160;protected]&lt;/a&gt;&lt;script cf-hash='f9e31' type=&quot;text/javascript&quot;&gt;\n/* &lt;![CDATA[ */!function(){try{var t=&quot;currentScript&quot;in document?document.currentScript:function(){for(var t=document.getElementsByTagName(&quot;script&quot;),e=t.length;e--;)if(t[e].getAttribute(&quot;cf-hash&quot;))return t[e]}();if(t&amp;&amp;t.previousSibling){var e,r,n,i,c=t.previousSibling,a=c.getAttribute(&quot;data-cfemail&quot;);if(a){for(e=&quot;&quot;,r=parseInt(a.substr(0,2),16),n=2;a.length-n;n+=2)i=parseInt(a.substr(n,2),16)^r,e+=String.fromCharCode(i);e=document.createTextNode(e),c.parentNode.replaceChild(e,c)}}}catch(u){}}();/* ]]&gt; */&lt;/script&gt;\nFormat settings, CABAC                   : Yes\nFormat settings, ReFrames                : 5 frames\nCodec ID                                 : avc1\nCodec ID/Info                            : Advanced Video Coding\nDuration                                 : 2h 2mn\nBit rate                                 : 3 228 Kbps\nMaximum bit rate                         : 12.8 Mbps\nWidth                                    : 1 280 pixels\nHeight                                   : 720 pixels\nDisplay aspect ratio                     : 16:9\nFrame rate mode                          : Variable\nFrame rate                               : 23.976 fps\nMinimum frame rate                       : 19.048 fps\nMaximum frame rate                       : 24.390 fps\nColor space                              : YUV\nChroma subsampling                       : 4:2:0\nBit depth                                : 8 bits\nScan type                                : Progressive\nBits/(Pixel*Frame)                       : 0.146\nStream size                              : 2.75 GiB (89%)\nWriting library                          : x264 core 112\n\nAudio\nID                                       : 2\nFormat                                   : AAC\nFormat/Info                              : Advanced Audio Codec\nFormat profile                           : LC\nCodec ID                                 : 40\nDuration                                 : 2h 2mn\nBit rate mode                            : Variable\nBit rate                                 : 384 Kbps\nMaximum bit rate                         : 607 Kbps\nChannel(s)                               : 6 channels\nChannel positions                        : Front: L C R, Side: L R, LFE\nSampling rate                            : 48.0 KHz\nCompression mode                         : Lossy\nDelay relative to video                  : 83ms\nStream size                              : 337 MiB (11%)\nLanguage                                 : English\n\nEnjoy...\n\nRequested by Alorati \n\nComing soon: Apocalypse Hitler, S.Darko, Domino, Mercury Rising, Twilight Samurai and more..","torrent":{"xt":"urn:btih:8caf0d7b278983326d1cfffc33ba71768b805132","amp;dn":"Interview+with+the+Vampire-720p+MP4+AAC+x264+BRRip+1994-CC","amp;tr":["udp%3A%2F%2Ftracker.openbittorrent.com%3A80","udp%3A%2F%2Fopen.demonii.com%3A1337","udp%3A%2F%2Ftracker.coppersurfer.tk%3A6969","udp%3A%2F%2Fexodus.desync.com%3A6969"],"infoHash":"8caf0d7b278983326d1cfffc33ba71768b805132","infoHashBuffer":{"type":"Buffer","data":[140,175,13,123,39,137,131,50,109,28,255,252,51,186,113,118,139,128,81,50]},"announce":[],"urlList":[]}}